<svg xmlns="http://www.w3.org/2000/svg" width="201" height="55" ><path d="M71.952 22.837c-1.352 0-2.4.51-3.141 1.53-.742 1.012-1.113 2.427-1.113 4.242 0 3.78 1.418 5.669 4.254 5.669 1.19 0 2.631-.298 4.324-.893V36.4c-1.391.58-2.945.87-4.66.87-2.465 0-4.351-.746-5.657-2.238C64.653 33.532 64 31.384 64 28.586c0-1.762.32-3.303.962-4.625.641-1.329 1.561-2.345 2.759-3.048 1.206-.711 2.616-1.067 4.23-1.067 1.647 0 3.3.398 4.962 1.194l-1.159 2.921a19.185 19.185 0 0 0-1.913-.788 5.706 5.706 0 0 0-1.89-.336ZM82.43 30.534c0 1.283.21 2.252.627 2.91.425.656 1.113.985 2.063.985.943 0 1.62-.325 2.029-.974.417-.657.626-1.63.626-2.921 0-1.283-.21-2.245-.626-2.887-.418-.641-1.102-.962-2.052-.962-.943 0-1.623.321-2.04.962-.418.634-.626 1.596-.626 2.887Zm8.961 0c0 2.11-.556 3.76-1.669 4.95-1.113 1.19-2.662 1.785-4.648 1.785-1.244 0-2.342-.27-3.292-.812-.95-.549-1.681-1.333-2.191-2.353-.51-1.02-.765-2.21-.765-3.57 0-2.118.552-3.764 1.657-4.938 1.105-1.175 2.659-1.762 4.66-1.762 1.245 0 2.342.27 3.292.811.95.541 1.681 1.318 2.191 2.33.51 1.012.765 2.199.765 3.559ZM98.416 37.269c-1.523 0-2.72-.592-3.594-1.774-.865-1.182-1.298-2.82-1.298-4.915 0-2.125.44-3.779 1.322-4.961.888-1.19 2.11-1.785 3.662-1.785 1.631 0 2.875.633 3.733 1.9h.116c-.178-.965-.267-1.827-.267-2.584V19h3.547v18.037h-2.712l-.684-1.681h-.151c-.803 1.275-2.028 1.913-3.674 1.913Zm1.24-2.817c.904 0 1.565-.263 1.982-.788.425-.526.657-1.419.696-2.678v-.383c0-1.39-.217-2.388-.649-2.99-.425-.603-1.121-.904-2.087-.904-.788 0-1.403.336-1.843 1.008-.433.665-.65 1.634-.65 2.91 0 1.275.221 2.233.662 2.874.44.634 1.07.95 1.89.95ZM114.702 26.35c-.749 0-1.337.239-1.762.718-.425.471-.668 1.143-.73 2.017h4.961c-.015-.873-.243-1.546-.684-2.017-.44-.48-1.035-.719-1.785-.719Zm.499 10.919c-2.087 0-3.717-.576-4.892-1.728-1.175-1.151-1.762-2.782-1.762-4.891 0-2.172.541-3.849 1.623-5.031 1.089-1.19 2.592-1.785 4.509-1.785 1.831 0 3.257.521 4.277 1.565 1.02 1.043 1.53 2.484 1.53 4.323v1.716h-8.357c.038 1.005.336 1.789.892 2.353.557.564 1.337.846 2.342.846.78 0 1.518-.08 2.214-.243a11.08 11.08 0 0 0 2.179-.777v2.736a8.122 8.122 0 0 1-1.982.684c-.703.154-1.561.232-2.573.232ZM135.324 37.037h-3.536v-7.57c0-.935-.166-1.634-.498-2.098-.332-.471-.862-.707-1.588-.707-.989 0-1.704.332-2.145.997-.44.657-.66 1.75-.66 3.28v6.098h-3.536v-12.96h2.701l.475 1.658h.197a3.704 3.704 0 0 1 1.623-1.414c.696-.325 1.484-.487 2.365-.487 1.507 0 2.651.41 3.431 1.229.781.81 1.171 1.986 1.171 3.523v8.45ZM141.78 30.534c0 1.283.209 2.252.626 2.91.425.656 1.113.985 2.064.985.942 0 1.619-.325 2.028-.974.418-.657.626-1.63.626-2.921 0-1.283-.208-2.245-.626-2.887-.417-.641-1.101-.962-2.052-.962-.942 0-1.622.321-2.04.962-.417.634-.626 1.596-.626 2.887Zm8.961 0c0 2.11-.557 3.76-1.669 4.95-1.113 1.19-2.663 1.785-4.649 1.785-1.244 0-2.341-.27-3.292-.812-.95-.549-1.681-1.333-2.191-2.353-.51-1.02-.765-2.21-.765-3.57 0-2.118.553-3.764 1.658-4.938 1.105-1.175 2.658-1.762 4.66-1.762 1.244 0 2.341.27 3.292.811.95.541 1.681 1.318 2.191 2.33.51 1.012.765 2.199.765 3.559ZM159.122 34.452c.618 0 1.36-.136 2.225-.406v2.631c-.881.395-1.963.592-3.246.592-1.414 0-2.445-.356-3.094-1.067-.642-.719-.963-1.793-.963-3.222v-6.248h-1.692v-1.496l1.947-1.182 1.02-2.736h2.261v2.76h3.628v2.654h-3.628v6.248c0 .502.139.873.417 1.112.286.24.661.36 1.125.36ZM172.209 37.037l-.684-1.762h-.093c-.595.75-1.209 1.271-1.843 1.565-.626.286-1.445.428-2.458.428-1.244 0-2.225-.355-2.944-1.066-.711-.71-1.066-1.723-1.066-3.037 0-1.375.479-2.388 1.437-3.037.966-.657 2.419-1.02 4.359-1.09l2.248-.07v-.567c0-1.314-.672-1.97-2.017-1.97-1.035 0-2.252.312-3.651.938l-1.171-2.388c1.492-.78 3.145-1.17 4.961-1.17 1.739 0 3.072.378 4 1.136.927.757 1.391 1.908 1.391 3.454v8.636h-2.469Zm-1.044-6.005-1.367.047c-1.028.03-1.793.216-2.296.556-.502.34-.753.858-.753 1.553 0 .997.572 1.496 1.715 1.496.82 0 1.473-.236 1.959-.707.495-.472.742-1.098.742-1.878v-1.067ZM185.562 23.834a5.7 5.7 0 0 1 1.194.104l-.266 3.315a4.053 4.053 0 0 0-1.044-.116c-1.128 0-2.009.29-2.643.87-.626.58-.939 1.39-.939 2.434v6.596h-3.535v-12.96h2.678l.521 2.18h.174a4.843 4.843 0 0 1 1.623-1.75 4.02 4.02 0 0 1 2.237-.673ZM187.255 24.077h3.871l2.446 7.291c.209.634.352 1.384.429 2.25h.07a9.952 9.952 0 0 1 .498-2.25l2.399-7.29h3.791l-5.483 14.616c-.502 1.353-1.221 2.365-2.156 3.037-.927.673-2.013 1.009-3.257 1.009-.611 0-1.21-.066-1.797-.197v-2.805c.425.1.889.15 1.391.15.626 0 1.171-.193 1.634-.58.472-.378.839-.954 1.102-1.727l.208-.637-5.146-12.867ZM27.843.74C12.883.74.74 12.883.74 27.843s12.143 27.104 27.103 27.104c14.96-.024 27.08-12.144 27.104-27.104C54.947 12.883 42.803.74 27.843.74Zm0 1.183c14.298.024 25.897 11.623 25.92 25.92 0 14.321-11.599 25.92-25.92 25.92-14.32 0-25.92-11.599-25.92-25.92 0-14.32 11.6-25.92 25.92-25.92Z" /><path d="M27.843 51.964c-1.396 0-2.793-.118-4.19-.355a.562.562 0 0 1-.473-.379c-.071-.212-.047-.426.095-.591a.574.574 0 0 1 .568-.19c2.627.45 5.326.45 7.977 0 .331-.047.64.166.687.474.047.331-.166.639-.474.686a24.812 24.812 0 0 1-4.19.355ZM16.08 48.84a.563.563 0 0 1-.284-.071 24.641 24.641 0 0 1-6.415-5.397c-.213-.26-.19-.616.07-.829.261-.213.616-.19.83.071a22.875 22.875 0 0 0 6.083 5.113.621.621 0 0 1 .284.663.564.564 0 0 1-.568.45Zm23.553 0a.612.612 0 0 1-.569-.426.588.588 0 0 1 .284-.663 23.502 23.502 0 0 0 6.108-5.113c.142-.166.355-.26.568-.213.213.047.378.19.473.379a.597.597 0 0 1-.118.591 23.737 23.737 0 0 1-6.415 5.374 3.81 3.81 0 0 0-.331.07ZM5.734 36.53a.613.613 0 0 1-.568-.402 23.45 23.45 0 0 1-1.444-8.261.68.68 0 0 1 .166-.426.57.57 0 0 1 .426-.166c.331 0 .592.26.592.592 0 2.675.473 5.326 1.396 7.835a.588.588 0 0 1-.355.758c-.094.047-.142.047-.213.07Zm44.242-.023c-.071 0-.142 0-.213-.024a.6.6 0 0 1-.355-.757c.923-2.51 1.373-5.184 1.373-7.86v-.046c0-.332.26-.592.592-.592.33 0 .591.26.591.592v.047c0 2.817-.497 5.61-1.444 8.261-.07.213-.307.355-.544.379ZM5.71 20.411a.618.618 0 0 1-.497-.26.562.562 0 0 1-.071-.545c.97-2.652 2.367-5.113 4.19-7.267a.575.575 0 0 1 .828-.071c.237.213.284.591.07.828a22.394 22.394 0 0 0-3.976 6.912.561.561 0 0 1-.544.402Zm44.241-.072a.628.628 0 0 1-.568-.378 22.828 22.828 0 0 0-4-6.889c-.142-.165-.166-.378-.095-.591.071-.19.237-.355.45-.38a.645.645 0 0 1 .568.214 23.91 23.91 0 0 1 4.213 7.243.588.588 0 0 1-.355.758c-.07 0-.142.024-.213.024ZM16.055 8.055a.604.604 0 0 1-.568-.45.588.588 0 0 1 .284-.662 24.008 24.008 0 0 1 7.859-2.888c.213-.048.426.047.568.213.142.165.166.378.095.591a.532.532 0 0 1-.45.38 22.975 22.975 0 0 0-7.48 2.745.817.817 0 0 1-.308.071Zm23.53-.024a.562.562 0 0 1-.285-.07 23.407 23.407 0 0 0-7.504-2.723.606.606 0 0 1-.45-.686.585.585 0 0 1 .663-.474 24.04 24.04 0 0 1 7.883 2.84.588.588 0 0 1 .284.664.692.692 0 0 1-.592.45Z" /><path d="M27.843 48.84c-11.599 0-20.996-9.398-20.996-20.997S16.244 6.847 27.843 6.847c11.6 0 20.997 9.397 20.997 20.996-.024 11.576-9.422 20.973-20.997 20.997Zm0-40.81C16.907 8.03 8.03 16.907 8.03 27.843c0 10.936 8.877 19.813 19.813 19.813 10.936 0 19.813-8.877 19.813-19.813C47.633 16.907 38.78 8.054 27.843 8.03Z" /><path d="M26.73 33.761c-.047 0-.094 0-.141-.024a6.546 6.546 0 0 1-4.545-4.308 6.51 6.51 0 0 1 1.16-6.154v-.024c.142-.166.284-.331.426-.473l5.278-5.28a6.579 6.579 0 0 1 6.32-1.703 6.563 6.563 0 0 1 4.64 4.64 6.494 6.494 0 0 1-1.704 6.32l-5.279 5.278a8.523 8.523 0 0 1-.497.45.582.582 0 0 1-.781-.047.582.582 0 0 1-.047-.782 5.372 5.372 0 0 0 1.018-4.781.606.606 0 0 1 .141-.568l2.486-2.486a2.38 2.38 0 0 0-.047-3.337c-.924-.924-2.415-.947-3.338-.048l-5.279 5.279a2.4 2.4 0 0 0 0 3.385 2.4 2.4 0 0 0 3.007.308.604.604 0 0 1 .733.07c.19.19.237.498.071.734a3.658 3.658 0 0 1-.45.569l-2.793 2.793c-.07.142-.236.19-.378.19Zm-2.627-9.729a5.335 5.335 0 0 0-.97 4.877 5.43 5.43 0 0 0 3.432 3.598l1.515-1.515a3.606 3.606 0 0 1-3.006-1.942 3.579 3.579 0 0 1 .213-3.574c.142-.213.284-.402.45-.568l5.278-5.255a3.586 3.586 0 0 1 5.066 0 3.586 3.586 0 0 1 0 5.066l-2.249 2.248c.095.45.142.9.142 1.373 0 .38-.024.758-.095 1.137l3.48-3.456c2.107-2.107 2.107-5.516 0-7.599-2.107-2.107-5.515-2.107-7.598 0l-5.28 5.279c-.141.047-.26.165-.378.331Z" /><path d="M28.27 30.992a3.542 3.542 0 0 1-3.149-1.87 3.584 3.584 0 0 1 .166-3.67.552.552 0 0 1 .166-.165 3.636 3.636 0 0 1 3.669-.166 3.542 3.542 0 0 1 1.87 3.148c0 .687-.213 1.373-.592 1.965a.555.555 0 0 1-.166.166 3.612 3.612 0 0 1-1.965.592Zm-2.06-4.782c-.544.947-.402 2.13.379 2.888.757.757 1.964.923 2.888.379a2.386 2.386 0 0 0-.876-3.29 2.395 2.395 0 0 0-2.391.023ZM33.17 27.323c-.048 0-.095 0-.143-.024-.213-.047-.355-.213-.426-.426a5.37 5.37 0 0 0-3.787-3.788.533.533 0 0 1-.403-.426c-.047-.213 0-.426.166-.568l2.462-2.485a3.586 3.586 0 0 1 5.066 0 3.586 3.586 0 0 1 0 5.065l-2.486 2.462c-.142.119-.284.19-.45.19Zm-3.125-5.066a6.565 6.565 0 0 1 3.385 3.385l1.799-1.823a2.413 2.413 0 0 0 .662-2.32 2.388 2.388 0 0 0-1.704-1.704 2.36 2.36 0 0 0-2.32.663l-1.822 1.799Z" /><path d="M28.27 30.992a3.542 3.542 0 0 1-3.149-1.87 3.584 3.584 0 0 1 .166-3.67.552.552 0 0 1 .166-.165 3.636 3.636 0 0 1 3.669-.166 3.542 3.542 0 0 1 1.87 3.148c0 .687-.213 1.373-.592 1.965a.555.555 0 0 1-.166.166 3.612 3.612 0 0 1-1.965.592Zm-2.06-4.782c-.544.947-.402 2.13.379 2.888.757.757 1.964.923 2.888.379a2.386 2.386 0 0 0-.876-3.29 2.395 2.395 0 0 0-2.391.023ZM33.17 27.323c-.048 0-.095 0-.143-.024-.213-.047-.355-.213-.426-.426a5.37 5.37 0 0 0-3.787-3.788.533.533 0 0 1-.403-.426c-.047-.213 0-.426.166-.568l2.462-2.485a3.586 3.586 0 0 1 5.066 0 3.586 3.586 0 0 1 0 5.065l-2.486 2.462c-.142.119-.284.19-.45.19Zm-3.125-5.066a6.565 6.565 0 0 1 3.385 3.385l1.799-1.823a2.413 2.413 0 0 0 .662-2.32 2.388 2.388 0 0 0-1.704-1.704 2.36 2.36 0 0 0-2.32.663l-1.822 1.799Z" /><path d="M22.139 40.105a6.546 6.546 0 0 1-6.06-4.048 6.568 6.568 0 0 1 1.42-7.149l5.279-5.278c.165-.166.331-.308.497-.45a.582.582 0 0 1 .781.047.582.582 0 0 1 .047.782 5.372 5.372 0 0 0-1.018 4.781.606.606 0 0 1-.142.568l-2.485 2.486a2.38 2.38 0 0 0 .047 3.337c.924.924 2.415.947 3.338.048l5.279-5.255c.118-.119.213-.237.307-.379.26-.402.38-.852.403-1.326 0-.875-.497-1.68-1.255-2.106a2.372 2.372 0 0 0-2.438.094.604.604 0 0 1-.734-.07.573.573 0 0 1-.07-.735c.141-.213.283-.402.449-.568l2.77-2.793a.616.616 0 0 1 .568-.166 6.546 6.546 0 0 1 4.544 4.309 6.51 6.51 0 0 1-1.16 6.154v.024a8.527 8.527 0 0 1-.425.473l-5.303 5.279a6.462 6.462 0 0 1-4.64 1.941Zm-.308-13.824-3.48 3.456a5.365 5.365 0 0 0 .047 7.551 5.365 5.365 0 0 0 7.552.048l5.278-5.28c.119-.118.237-.26.355-.402l.024-.023a5.335 5.335 0 0 0 .97-4.877 5.43 5.43 0 0 0-3.432-3.598l-1.515 1.539a3.606 3.606 0 0 1 3.007 1.941 3.578 3.578 0 0 1-.213 3.574 3.652 3.652 0 0 1-.45.569l-5.279 5.278a3.586 3.586 0 0 1-5.066 0 3.586 3.586 0 0 1 0-5.065l2.25-2.25a5.743 5.743 0 0 1-.048-2.461Z" /><path d="M28.27 30.992a3.542 3.542 0 0 1-3.149-1.87 3.584 3.584 0 0 1 .166-3.67.552.552 0 0 1 .166-.165 3.586 3.586 0 0 1 4.497.473 3.586 3.586 0 0 1 .473 4.498.554.554 0 0 1-.165.166c-.616.355-1.278.568-1.989.568Zm-2.06-4.782c-.544.947-.402 2.13.379 2.888.757.757 1.964.923 2.888.379.213-.38.331-.782.331-1.208 0-.852-.473-1.633-1.207-2.059a2.396 2.396 0 0 0-2.391 0ZM22.138 37.122a3.561 3.561 0 0 1-3.29-2.201c-.544-1.326-.237-2.864.781-3.906l2.462-2.462a.635.635 0 0 1 .568-.165c.213.047.355.213.426.426a5.37 5.37 0 0 0 3.788 3.787c.213.047.355.213.426.426a.606.606 0 0 1-.142.568l-2.462 2.462a3.622 3.622 0 0 1-2.557 1.065Zm.119-7.077-1.823 1.799a2.38 2.38 0 0 0 .047 3.337c.924.924 2.415.947 3.338.048l1.823-1.8a6.564 6.564 0 0 1-3.385-3.384Z" /><path d="M28.27 30.992a3.542 3.542 0 0 1-3.149-1.87 3.584 3.584 0 0 1 .166-3.67.552.552 0 0 1 .166-.165 3.586 3.586 0 0 1 4.497.473 3.586 3.586 0 0 1 .473 4.498.554.554 0 0 1-.165.166c-.616.355-1.278.568-1.989.568Zm-2.06-4.782c-.544.947-.402 2.13.379 2.888.757.757 1.964.923 2.888.379.213-.38.331-.782.331-1.208 0-.852-.473-1.633-1.207-2.059a2.396 2.396 0 0 0-2.391 0ZM22.138 37.122a3.561 3.561 0 0 1-3.29-2.201c-.544-1.326-.237-2.864.781-3.906l2.462-2.462a.635.635 0 0 1 .568-.165c.213.047.355.213.426.426a5.37 5.37 0 0 0 3.788 3.787c.213.047.355.213.426.426a.606.606 0 0 1-.142.568l-2.462 2.462a3.622 3.622 0 0 1-2.557 1.065Zm.119-7.077-1.823 1.799a2.38 2.38 0 0 0 .047 3.337c.924.924 2.415.947 3.338.048l1.823-1.8a6.564 6.564 0 0 1-3.385-3.384Z" /><path d="M70.048 37.096c-2.89-.422-4.845-2.28-5.65-5.368-.16-.618-.27-1.852-.27-3.049 0-3.13.563-4.808 2.194-6.532 2.035-2.152 5.427-2.812 8.88-1.728 1.765.554 1.722.476 1.105 2.018-.326.816-.633 1.329-.78 1.305-.133-.021-.855-.255-1.603-.519-2.867-1.011-5.08.022-5.917 2.763-.375 1.225-.358 4.267.03 5.424.886 2.644 3.077 3.446 6.7 2.452.752-.207 1.408-.376 1.456-.376.05 0 .089.647.089 1.437v1.437l-.862.283c-.918.303-3.104.658-3.855.627-.249-.01-.932-.088-1.517-.174zM83.727 37.097c-2.093-.363-3.798-1.869-4.478-3.955-.44-1.352-.431-4.099.019-5.37.542-1.532 1.416-2.542 2.781-3.214 1.124-.553 1.338-.595 3.028-.594 1.59 0 1.942.06 2.815.48 2.456 1.177 3.59 3.41 3.403 6.697-.243 4.272-3.319 6.692-7.568 5.956zm2.739-2.988c.86-.446 1.27-1.583 1.27-3.525 0-2.736-.786-3.887-2.656-3.887-1.79 0-2.469.886-2.595 3.392-.101 2.018.168 3.038.993 3.763.51.447.776.542 1.527.542.5 0 1.158-.129 1.46-.285zM97.263 37.104c-1.52-.376-2.765-1.724-3.338-3.618-.408-1.348-.408-4.456 0-5.805.448-1.48 1.242-2.61 2.252-3.204.765-.45 1.06-.514 2.328-.514 1.258 0 1.564.066 2.304.501.47.276.978.68 1.13.896.152.217.307.359.344.315.038-.044-.004-.809-.092-1.7a30.296 30.296 0 0 1-.11-3.266l.052-1.644 1.768-.052 1.77-.052v17.972H102.935l-.362-.845-.363-.845-.608.664c-.335.366-.89.783-1.234.926-.853.356-2.264.48-3.106.271zm3.997-3.079c.722-.454 1.054-1.536 1.053-3.435 0-2.679-.772-3.843-2.564-3.87-1.724-.026-2.463.983-2.572 3.51-.105 2.457.368 3.607 1.667 4.054.752.258 1.766.15 2.416-.259zM113.32 37.029c-2.08-.471-3.283-1.437-4.184-3.361-.42-.896-.467-1.21-.459-3.084.008-1.704.083-2.272.408-3.098.539-1.371 1.466-2.402 2.712-3.014.928-.455 1.232-.51 2.853-.51 1.51 0 1.966.07 2.72.418 1.158.533 1.819 1.165 2.412 2.304.403.772.484 1.197.548 2.857l.074 1.95h-8.346l.17.753c.214.956.75 1.71 1.483 2.09.865.447 3.04.366 4.649-.173l1.293-.434-.053 1.37-.052 1.369-1.034.314c-1.49.453-3.803.564-5.195.249zm3.779-8.464c0-.76-.603-1.696-1.27-1.972-.653-.27-1.842-.277-2.336-.012-.531.284-1.062 1.111-1.206 1.878l-.127.674h4.939zM123.448 30.485v-6.448l1.304.054 1.305.053.16.635c.241.947.414 1.018 1.017.415.942-.943 1.752-1.23 3.475-1.23 2.011-.002 3.082.496 3.894 1.808l.546.882.056 5.14.055 5.14h-3.467v-4.27c0-4.778-.097-5.286-1.104-5.807-1.143-.591-2.59-.069-3.34 1.206-.33.558-.37 1.006-.424 4.743l-.06 4.127h-3.417zM143.198 37.118c-2.777-.49-4.508-2.431-4.892-5.486-.418-3.332.877-6.114 3.374-7.248.746-.339 1.229-.412 2.724-.416 1.692-.005 1.9.035 3.028.59 2.105 1.036 3.051 2.667 3.188 5.493.127 2.618-.467 4.342-1.992 5.778-1.109 1.043-3.544 1.621-5.43 1.289zm2.563-2.954c.25-.123.656-.632.903-1.131.379-.764.45-1.165.447-2.54-.003-2.635-.821-3.798-2.67-3.794-1.763.003-2.5.965-2.632 3.431-.098 1.825.179 2.884.957 3.663.531.531.713.6 1.571.598.534-.002 1.175-.104 1.424-.227zM157.462 37.214c-.1-.038-.49-.121-.865-.184-.377-.063-.962-.358-1.3-.655-1.028-.903-1.19-1.71-1.19-5.914v-3.687h-1.634v-.806c0-.778.031-.823.909-1.315.838-.47.948-.613 1.426-1.87l.518-1.36 1.113-.054 1.114-.054v2.739h3.628v2.72h-3.628v3.447c0 3.205.025 3.472.363 3.81.2.2.546.37.77.38.754.035 1.596-.045 2.146-.203l.546-.156-.053 1.304-.053 1.305-.636.207c-.682.223-2.874.462-3.174.346zM166.004 37.102c-1.83-.453-2.822-1.825-2.826-3.904-.004-2.799 1.574-3.8 6.574-4.173l1.406-.105v-.7c0-.479-.138-.86-.438-1.209-.408-.474-.529-.508-1.769-.497-.877.008-1.686.143-2.377.396l-1.047.384-.546-1.084c-.301-.595-.503-1.155-.448-1.243.054-.088.649-.35 1.321-.582 1.018-.35 1.588-.421 3.4-.419 1.911.003 2.281.055 3.036.427 1.05.518 1.869 1.417 2.123 2.331.11.398.19 2.684.191 5.447l.001 4.762h-2.371l-.358-.836-.359-.835-.743.672c-.41.37-1.004.78-1.321.913-.798.333-2.596.466-3.449.255zm3.573-2.594c1.066-.454 1.465-1.075 1.55-2.409l.076-1.194-1.337.134c-2.343.234-3.061.724-3.061 2.088 0 .842.252 1.26.907 1.5.495.183 1.273.133 1.865-.12zM178.415 30.493v-6.44h2.525l.2.771c.43 1.665.445 1.68.967.907.814-1.205 2.328-1.93 3.802-1.824l.76.056-.058 1.27c-.087 1.924-.074 1.904-1.286 1.904-1.367 0-2.494.575-3.052 1.556-.383.673-.406.917-.409 4.476l-.003 3.764h-3.446zM188.528 42.619c-.492-.085-.499-.105-.499-1.435v-1.348h1.134c1.498-.002 2.187-.419 2.775-1.682.243-.522.442-1.032.443-1.134.001-.103-1.14-3.04-2.538-6.527-1.396-3.487-2.54-6.363-2.54-6.39 0-.027.853-.05 1.894-.05h1.893l1.372 4.15c.755 2.28 1.372 4.358 1.372 4.614 0 .74.306.73.426-.014.06-.373.697-2.493 1.417-4.713l1.308-4.037h3.734l-.521 1.406c-2.022 5.455-4.996 13.325-5.273 13.955-.491 1.118-1.684 2.316-2.773 2.784-.932.401-2.61.596-3.624.42zM24.415 54.707c-3.171-.441-6.165-1.402-9.082-2.914-2.71-1.406-4.755-2.949-6.994-5.278-3.591-3.736-5.83-7.963-7.01-13.232-.368-1.642-.42-2.346-.41-5.51.01-3.024.078-3.925.406-5.405 1.6-7.23 5.617-13.116 11.681-17.122 2.874-1.899 5.775-3.116 9.272-3.892 2.43-.538 7.036-.663 9.61-.26 7.624 1.196 14.193 5.384 18.48 11.783 2.794 4.173 4.246 8.71 4.446 13.897.18 4.665-.611 8.562-2.567 12.65-1.403 2.934-2.931 5.076-5.347 7.498-3.926 3.936-8.814 6.547-14.078 7.521-1.88.348-6.715.5-8.407.264zm8.517-1.427c10.343-2.08 18.34-10.163 20.435-20.652.441-2.21.441-7.32 0-9.53C51.255 12.526 43.449 4.672 32.744 2.35c-2.173-.471-7.606-.477-9.796-.01-5.96 1.27-11.172 4.322-14.837 8.688-2.937 3.5-4.677 7.042-5.692 11.595-.6 2.69-.598 7.71.004 10.492 1.99 9.192 8.528 16.467 17.441 19.406 1.314.433 3.29.853 5.533 1.175 1.217.175 5.875-.083 7.535-.417z" /><path d="M48.562 18.032c-.6-1.228-1.588-2.907-2.196-3.732-.607-.825-1.105-1.57-1.105-1.656 0-.28.492-.573.778-.463.833.32 4.611 6.806 4.452 7.642-.035.181-.238.355-.45.385-.332.048-.546-.267-1.479-2.176zM26.124 48.764c-6.468-.592-12.12-3.912-15.691-9.217a20.967 20.967 0 0 1-2.126-19.353c1.64-4.182 4.609-7.754 8.453-10.174 1.961-1.235 4.48-2.242 6.78-2.711 1.682-.344 2.193-.39 4.315-.39 2.114 0 2.642.048 4.271.383 7.022 1.445 12.883 6.482 15.376 13.213.543 1.466.858 2.692 1.105 4.297.175 1.138.242 3.682.129 4.893-.462 4.925-2.593 9.473-6.063 12.938-3.38 3.373-7.599 5.434-12.348 6.03-.967.122-3.315.172-4.201.091zm3.178-1.154c4.823-.374 9.205-2.393 12.592-5.802a19.75 19.75 0 0 0 5.649-11.769c.113-.995.13-3.065.033-4.05-.458-4.638-2.453-8.86-5.738-12.145C38.815 10.82 34.97 8.88 30.71 8.226c-1.106-.17-3.553-.237-4.657-.127-3.882.384-7.37 1.774-10.48 4.175-.79.61-2.596 2.413-3.262 3.256C8.817 19.957 7.366 25.598 8.3 31.13a19.872 19.872 0 0 0 9.006 13.498c3.566 2.241 7.843 3.305 11.997 2.983zM38.579 7.558c-2.053-1.061-4.084-1.79-6.17-2.21-.742-.15-.89-.214-.987-.429-.151-.332-.023-.676.298-.798.288-.11 2.44.384 3.971.91 1.472.506 3.798 1.576 4.248 1.955.412.347.27.85-.288 1.016-.095.028-.415-.104-1.072-.444zM49.687 36.42a.661.661 0 0 1-.248-.284c-.071-.173-.053-.275.18-.98.725-2.197 1.166-4.791 1.166-6.861 0-.68.091-.907.406-1.01.26-.086.497-.014.645.199.298.425-.05 4.02-.599 6.195-.253 1.006-.624 2.226-.748 2.467a.72.72 0 0 1-.316.28c-.263.11-.275.11-.486-.005zM15.798 7.962c-.207-.118-.285-.259-.287-.518a.5.5 0 0 1 .146-.392c.22-.22 2.577-1.375 3.576-1.754a32.452 32.452 0 0 1 1.636-.563c.895-.274 2.602-.67 2.888-.671.304 0 .539.25.539.576 0 .419-.16.528-1.028.7-1.898.378-3.821 1.057-5.77 2.038-.724.364-1.373.661-1.444.66a.638.638 0 0 1-.256-.076zM5.504 20.349c-.21-.084-.382-.309-.384-.499-.004-.464 1.292-3.236 2.201-4.707.515-.833 1.628-2.372 1.996-2.757.33-.346.757-.307.95.088.148.301.094.443-.402 1.06-1.473 1.83-2.77 4.12-3.528 6.224-.078.218-.19.44-.248.492a.594.594 0 0 1-.585.099zM5.428 36.421c-.195-.11-.313-.39-.698-1.666-.54-1.789-.852-3.615-.96-5.634-.064-1.177-.06-1.288.047-1.506.081-.166.176-.253.322-.293.248-.07.566.042.67.235.038.071.093.669.122 1.328.1 2.247.578 4.71 1.28 6.592.167.447.16.552-.05.782-.21.232-.496.295-.733.162zM15.301 48.453c-1.306-.796-2.436-1.65-3.726-2.816-.862-.779-2.152-2.17-2.27-2.448-.155-.366.137-.772.556-.772.154 0 .264.077.532.369 1.882 2.05 3.37 3.329 5.259 4.52.449.283.852.558.896.61.044.054.08.213.08.353 0 .2-.038.289-.178.409-.27.231-.463.193-1.149-.225zM26.387 51.91c-.93-.061-2.39-.234-2.738-.324-.401-.105-.602-.496-.427-.83.16-.308.324-.333 1.305-.195 2.258.317 4.592.306 6.853-.031.48-.072.609-.072.78 0 .372.155.455.535.186.854-.145.172-.224.2-.85.293-1.554.232-3.65.328-5.109.233zM39.388 48.769a.528.528 0 0 1-.303-.632c.046-.185.126-.277.37-.428 2.233-1.382 4.04-2.857 5.482-4.473.393-.442.727-.76.823-.783a.579.579 0 0 1 .727.551c0 .206-.062.317-.396.71-1.373 1.618-3.453 3.39-5.403 4.602-.718.446-1.044.56-1.3.453z"/><path d="M21.313 40.035a6.561 6.561 0 0 1-5.099-3.728 6.556 6.556 0 0 1 .707-6.7c.51-.678 12.343-12.483 12.859-12.827 1.276-.851 2.585-1.22 4.088-1.155 1.69.075 3.076.69 4.285 1.903.583.584.88.995 1.238 1.71a6.59 6.59 0 0 1 .176 5.418c-.463 1.102-.398 1.03-6.725 7.414-3.257 3.287-6.102 6.132-6.32 6.324-1.105.965-2.232 1.477-3.636 1.648-.618.076-.934.074-1.573-.007zm1.615-1.214a5.718 5.718 0 0 0 1.945-.654c.422-.235.845-.628 3.454-3.22 1.635-1.623 3.117-3.14 3.293-3.369.377-.491.831-1.402.992-1.988.178-.65.163-2.053-.03-2.726-.308-1.07-.903-2.003-1.706-2.675-.458-.384-1.081-.764-1.498-.914l-.24-.086-.753.746-.753.745.46.078c.703.118 1.342.463 1.88 1.013.87.89 1.21 2.021.962 3.205-.206.987-.214.997-3.36 4.195-1.574 1.6-3.034 3.04-3.246 3.201-.681.516-1.318.729-2.18.729-.628 0-1.02-.087-1.54-.341-.995-.486-1.657-1.298-1.931-2.367-.14-.542-.092-1.472.102-2.027.23-.654.557-1.079 1.849-2.39l1.228-1.248-.047-.258c-.026-.143-.046-.685-.045-1.206l.001-.947-1.818 1.813c-1 .997-1.946 1.99-2.103 2.208-.358.495-.747 1.328-.895 1.914-.138.549-.157 1.756-.036 2.309.411 1.877 1.816 3.458 3.589 4.039a5.26 5.26 0 0 0 2.426.221zm.25-3.164c.283-.13.59-.39 1.382-1.172.56-.554 1.019-1.026 1.019-1.05 0-.025-.092-.083-.203-.13-.406-.167-1.188-.73-1.68-1.206-.487-.474-1.143-1.362-1.318-1.787-.047-.115-.105-.209-.129-.209-.024 0-.495.455-1.047 1.012-1.247 1.255-1.365 1.462-1.361 2.387.002.527.025.657.173.962.19.389.541.803.873 1.027.615.416 1.59.487 2.29.166zm4.13-3.898.736-.714-.511-.12c-1.14-.269-1.994-.933-2.465-1.918-.513-1.073-.52-2.082-.022-3.137.218-.461.355-.609 3.346-3.595 2.8-2.797 3.162-3.135 3.536-3.315.862-.415 1.646-.5 2.528-.275.627.16 1.055.392 1.521.822.771.712 1.153 1.577 1.155 2.616.001.673-.104 1.12-.407 1.723-.153.306-.478.674-1.53 1.736l-1.337 1.347.069.48c.037.265.053.824.034 1.244l-.033.762.46-.442c1.887-1.815 3.39-3.372 3.662-3.795.609-.945.87-1.833.87-2.964 0-1.512-.513-2.742-1.584-3.801-.706-.699-1.348-1.08-2.31-1.371-.488-.148-.681-.172-1.43-.174-1.236-.004-2.042.232-3.06.895-.4.262-6.156 5.922-6.58 6.472a5.92 5.92 0 0 0-.498.837c-1.31 2.693-.14 5.951 2.593 7.216.216.1.422.183.458.183.035.001.395-.32.8-.712zm1.874-2.154c.237-.104.309-.18.419-.44.815-1.917-1.145-3.857-3.104-3.072-.326.131-.503.457-.57 1.051a2.357 2.357 0 0 0 1.608 2.51c.482.162 1.22.14 1.647-.049zm6.435-6.339c.14-.289.134-.269.214-.731.176-1.02-.41-2.096-1.39-2.555-.314-.148-.448-.17-.974-.17-.566 0-.636.014-.996.21-.275.148-.68.502-1.393 1.218l-1.006 1.008.487.257c1.038.546 2.082 1.592 2.62 2.624l.256.493 1.03-1.052c.567-.578 1.085-1.164 1.152-1.302z" /></svg>