<svg xmlns="http://www.w3.org/2000/svg" fill-rule="evenodd" stroke-linejoin="round" stroke-miterlimit="2" clip-rule="evenodd" viewBox="0 0 1610 422"><g fill-rule="nonzero"><path fill="url(#_Linear1)" d="M566.29 447.67a270.846 270.846 0 00-7.4-43.86c-1.11-2-2.31-4-3.53-6a273.23 273.23 0 00-34.65-28.66 277.01 277.01 0 00-105.26-44.87 280.731 280.731 0 00-48.67-5.2c-1.78 0-3.59-.06-5.4-.06-1.81 0-3.62 0-5.4.06 1.84.78 3.62 1.61 5.4 2.48a163.955 163.955 0 0116.42 9.1c44.16 27.661 72.903 74.473 77.59 126.37.06.81.14 1.62.19 2.42v.45c.06.69.11 1.42.14 2.11.22 3.34.31 6.71.31 10.11a165.738 165.738 0 01-12.8 64.14c0 .11-.09.2-.11.31a163.942 163.942 0 01-8.33 17.06c-.33.58-.66 1.17-1 1.73-.34.56-.53.94-.83 1.41-14.962 25.01-41.996 40.42-71.14 40.55h-.94c-29.144-.13-56.178-15.54-71.14-40.55a167.129 167.129 0 0063.46 61.65c2.36 1.19 4.76 2.31 7.18 3.34.489.245.989.465 1.5.66 3.95 1.67 8 3.21 12.11 4.54a157.048 157.048 0 0048.67 7.71 155.15 155.15 0 0084.8-25c1.19-.75 2.36-1.5 3.53-2.31 1.78-1.22 3.54-2.48 5.23-3.76a150.24 150.24 0 0012-10c2.79-2.56 5.52-5.23 8.1-8A152.882 152.882 0 00550 569a277.131 277.131 0 0017.34-96.84 262.92 262.92 0 00-1.05-24.49z" transform="translate(-155.43 -319.02)"></path><path fill="url(#_Linear2)" d="M527.89 610a167.69 167.69 0 01-94.21 29.14 166.083 166.083 0 01-71.85-16.23 18.055 18.055 0 00-.89-.42c-.34-.16-.67-.33-1-.5a119.5 119.5 0 01-6.73-3.53 167.129 167.129 0 01-63.46-61.65c-.3-.47-.58-.94-.83-1.41s-.67-1.15-1-1.73c-13.734-25.34-13.397-56.067.89-81.1.424-.825.898-1.623 1.42-2.39 15.136-24.714 42.119-39.819 71.1-39.8-1.67 0-3.37 0-5 .09-1.25 0-2.47.08-3.73.16h-.77a154.873 154.873 0 00-25.83 3.79 152.927 152.927 0 00-31.64 11c-1.31.61-2.59 1.25-3.87 1.86a157.54 157.54 0 00-22.63 14.11l-.83.64c-44.188 33.483-67.216 88.185-60.28 143.19.58 4.53 1.36 9 2.34 13.47a151 151 0 0010.3 31 278.867 278.867 0 0096.84 74.81 271.544 271.544 0 0045.17 16.45 271.544 271.544 0 0045.17-16.45 279.181 279.181 0 0097-74.92c26.383-31.849 0 0 0-.05a276.47 276.47 0 0023.76-33.46c1.92-3.14 3.76-6.31 5.51-9.54a141.36 141.36 0 01-4.95 3.47z" transform="translate(-155.43 -319.02)"></path><path fill="url(#_Linear3)" d="M453.61 467.4c-.2-2.54-.45-5-.78-7.52-.08-.8-.2-1.61-.31-2.42-7.485-51.146-39.922-95.363-86.46-117.86-.12 0-.2-.11-.34-.16-1.72-.84-3.47-1.65-5.26-2.4a148.803 148.803 0 00-16.11-6 154.275 154.275 0 00-37.35-6.63 278.63 278.63 0 00-142.21 76 271.495 271.495 0 00-8.27 47.23 278.007 278.007 0 00-1.09 24.49 277.538 277.538 0 0019.37 102.16 271.547 271.547 0 0015.2 32.2c1.75 3.23 3.59 6.4 5.51 9.54-.25-2-.45-4-.58-6-.31-4.18-.48-8.41-.48-12.67v-2c.618-54.217 27.639-104.859 72.33-135.56.125-.1.255-.193.39-.28.3-.22.64-.44 1-.66l.92-.62a165.807 165.807 0 0182.77-27.55h.77c1.26-.08 2.48-.14 3.73-.16 1.67-.06 3.37-.09 5-.09 28.983-.017 55.968 15.087 71.11 39.8.518.769.992 1.567 1.42 2.39 14.274 25.036 14.611 55.756.89 81.1-.31.58-.64 1.14-1 1.73.34-.56.67-1.15 1-1.73a163.942 163.942 0 008.33-17.06c0-.11.08-.2.11-.31a153.493 153.493 0 0010.35-45.16v-.37c.31-3.75.42-7.54.42-11.35.007-4.08-.12-8.107-.38-12.08z" transform="translate(-155.43 -319.02)"></path><path fill="url(#_Linear4)" d="M665.73 466.91h27v22.2c11.1-14.4 28.2-25.5 47.4-25.5v27.3a42.47 42.47 0 00-9.3-.9c-13.5 0-31.8 10.2-38.1 21v100.8h-27v-144.9z" transform="translate(-155.43 -319.02)"></path><path fill="url(#_Linear5)" d="M830.73 463.31c43.5 0 70.5 33.9 70.5 78.3v6.6h-114.6c2.1 24.6 20.1 45 49.2 45 15.3 0 32.1-6 42.9-17.1l12.6 17.7c-14.4 14.1-34.8 21.6-58.2 21.6-43.2 0-75-30.6-75-76.2 0-42 30.3-75.9 72.6-75.9zm-44.4 65.4h88.5c-.6-19.2-13.5-43.2-44.1-43.2-29.1 0-42.9 23.4-44.4 43.2z" transform="translate(-155.43 -319.02)"></path><path fill="url(#_Linear6)" d="M941.73 490.61h-24v-23.7h24v-9.6c0-31.2 18.3-48.6 44.1-48.6 9.3 0 17.4 1.8 23.7 5.4l-6.3 20.1a25.75 25.75 0 00-12.9-3.3c-13.5 0-21.6 9-21.6 26.4v9.6h29.4v23.7h-29.4v121.2h-27v-121.2z" transform="translate(-155.43 -319.02)"></path><path fill="url(#_Linear7)" d="M1121.72 592c-11.1 12-29.4 23.4-51.6 23.4-30.9 0-46.2-15.6-46.2-46.2V466.91h27v93.3c0 24 12 31.2 30.6 31.2 16.8 0 32.1-9.6 40.2-20.4v-104.1h27v144.9h-27V592z" transform="translate(-155.43 -319.02)"></path><path fill="url(#_Linear8)" d="M1191.62 466.91h27v22.2c11.1-14.4 28.2-25.5 47.4-25.5v27.3a42.512 42.512 0 00-9.3-.9c-13.5 0-31.8 10.2-38.1 21v100.8h-27v-144.9z" transform="translate(-155.43 -319.02)"></path><path fill="url(#_Linear9)" d="M1293 411.71h27v76.2c11.4-15.6 28.5-24.6 47.4-24.6 37.8 0 64.5 29.7 64.5 76.2 0 47.4-27 75.9-64.5 75.9-19.5 0-36.6-9.9-47.4-24.3v20.7h-27v-200.1zm67.2 179.7c27 0 43.8-21.6 43.8-51.9 0-30.3-16.8-52.2-43.8-52.2-16.5 0-33 9.9-40.2 21.6v61.5c7.22 11.7 23.72 21 40.22 21h-.02z" transform="translate(-155.43 -319.02)"></path><path fill="url(#_Linear10)" d="M1530 463.31c43.5 0 70.5 33.9 70.5 78.3v6.6h-114.6c2.1 24.6 20.1 45 49.2 45 15.3 0 32.1-6 42.9-17.1l12.6 17.7c-14.4 14.1-34.8 21.6-58.2 21.6-43.2 0-75-30.6-75-76.2.02-42 30.32-75.9 72.6-75.9zm-44.4 65.4h88.5c-.6-19.2-13.5-43.2-44.1-43.2-29.08 0-42.88 23.4-44.38 43.2h-.02z" transform="translate(-155.43 -319.02)"></path><path fill="url(#_Linear11)" d="M1737.62 591.11c-10.8 14.4-28.2 24.3-47.4 24.3-37.8 0-64.8-28.5-64.8-75.9 0-46.5 27-76.2 64.8-76.2 18.6 0 35.7 9 47.4 24.6v-76.2h27v200.1h-27v-20.7zm0-82.5c-7.5-11.7-23.7-21.3-40.2-21.3-27 0-43.8 21.9-43.8 52.2 0 30 16.8 51.9 43.8 51.9 16.5 0 32.7-9.3 40.2-21v-61.8z" transform="translate(-155.43 -319.02)"></path></g></svg>