<svg xmlns="http://www.w3.org/2000/svg" viewBox="0 0 187.629 39.924">
  <g id="RIKA_Logo_vertikal" data-name="RIKA Logo vertikal" transform="translate(-809 -509)">
    <path id="Path_1" data-name="Path 1" d="M15.095,30.719a9.086,9.086,0,0,1,1.259-2.5l1.376-1.893a5.493,5.493,0,0,0,1-4,6.185,6.185,0,0,1,1.5,8.711,9.429,9.429,0,0,0-1.288,8.893H36.871a9.424,9.424,0,0,0-1.288-8.893l-3.017-4.156a6.19,6.19,0,0,1,1.492-8.718,5.661,5.661,0,0,0,1.031,4.072l4.356,6c.178.245.325.514.479.778V0H0V39.924H17.239A9.069,9.069,0,0,1,15.095,30.719Zm8.736-12.078a8.435,8.435,0,0,1,1.159-2.312l3.819-5.256a7.7,7.7,0,0,0,1.359-6.087,8.354,8.354,0,0,1,.965,11.006l-3.764,5.182a7.9,7.9,0,0,0-1.13,2.223,7.8,7.8,0,0,0-.25,3.959A8.424,8.424,0,0,1,23.831,18.641Z" transform="translate(809 509)" />
    <path id="Path_2" data-name="Path 2" d="M113.017,13.407C113.017,5.364,107.237,0,98.656,0H77.384V39.924H88.825V27.172h1.55l10.964,12.752H115.1L103.423,26.4A12.986,12.986,0,0,0,113.017,13.407ZM96.512,18.115H88.825V9.475h7.687c3.218,0,5.243,1.728,5.243,4.23C101.755,16.327,99.73,18.115,96.512,18.115ZM118.006,0h11.441V39.924H118.006Zm69.722,0-14.8,36.716L158.945,20.082,174.5,0H160.971L149.112,15.076h-1.43V0H136.241V39.924h11.441V25.861h2.026l11.143,14.063h23.063l2.264-6.079H201.91l2.205,6.079h12.334L200.36,0Zm1.966,24.252,4.41-11.977,4.35,11.977ZM213.052,6.812a3.343,3.343,0,0,0,3.4-3.4,3.4,3.4,0,1,0-6.795,0A3.343,3.343,0,0,0,213.052,6.812Zm0-6.251a2.8,2.8,0,0,1,2.819,2.854,2.811,2.811,0,1,1-5.622,0A2.8,2.8,0,0,1,213.052.56Zm-.645,3.279H213l.985,1.069h.714l-1.037-1.121a1.021,1.021,0,0,0,.867-1.019c0-.629-.51-1.037-1.275-1.037h-1.426V4.909h.578Zm0-1.58h.848c.408,0,.68.2.68.527s-.272.544-.68.544h-.848Z" transform="translate(780.18 509)" />
  </g>
</svg>
