<?xml version="1.0" encoding="utf-8"?>
<svg version="1.1" id="layer" xmlns="http://www.w3.org/2000/svg" xmlns:xlink="http://www.w3.org/1999/xlink" x="0px" y="0px"
	 viewBox="0 0 652 652" style="enable-background:new 0 0 652 652;" xml:space="preserve">

			<g id="Group" transform="translate(173.000000, 0.000000)">
				<ellipse id="Oval" class="st0" cx="397.9" cy="328.9" rx="15.9" ry="15.8"/>
				<path id="Shape" class="st0" d="M317.9,328.6c-0.2,5.5,2.6,10.7,7.3,13.6c4.7,2.9,10.6,3.1,15.5,0.5c4.9-2.6,8-7.6,8.2-13.1
					v-15.1h-18.2C323.3,315,317.6,321.3,317.9,328.6L317.9,328.6z"/>
				<path id="Shape_1_" class="st0" d="M366.4,237.3h-0.4c-29.2,0-56.1,15.5-70.7,40.7s-14.6,56.2,0,81.3c1.8,3,3.8,6.2,6,9.5
					c9,14.7-18.6,8.9-4.4,18.7c16.9,12.1,37.3,18.6,58.2,18.4h0.9c30.2,0.4,58.7-13.6,76.7-37.7c10-14.4,15.2-31.6,14.7-49.1v-0.7
					C447.2,273.7,411.1,237.6,366.4,237.3z M332.6,357.8c-7.6,0.1-14.9-2.8-20.2-8.2c-5.3-5.3-8.3-12.6-8.2-20.1
					c0-15.8,12.5-28.8,28.4-29.3h15.9v-22c0-3.6,2.9-6.5,6.5-6.5s6.5,2.9,6.5,6.5v9.7c0,16.6,0,25.2,0,40.9
					C361.4,344.7,348.6,357.6,332.6,357.8z M397.6,357.8c-16,0-29-13-29-28.9c0-16,13-28.9,29-28.9c16,0,29,13,29,28.9
					c0,15.9-12.8,28.8-28.7,28.9H397.6z"/>
			</g>
			<path id="Shape_2_" class="st1" d="M306.6,300.5c-14.2-0.4-26.7,9.2-29.3,22.8c-3,13,3.6,26.3,15.9,32.2
				c3.6,1.6,7.4,2.4,11.3,2.3c7.3,0.3,14.3-2.4,19.6-7.2c2.8-2.5,3.2-6.6,1-9.5c-1.1-1.6-2.9-2.5-4.8-2.5c-1.5,0.1-3,0.5-4.3,1.4
				l-1.8,1.2c-0.9,0.6-1.9,1.3-2.8,1.8c-2.1,1.2-4.4,1.8-6.9,1.8c-4.6-0.1-8.8-2.4-11.3-6.1c-4.3-5.8-4.1-13.7,0.5-19.3
				c2.6-3.2,6.6-5.1,10.8-5.1c3,0,5.8,0.9,8.3,2.5l1.5,0.9c1.5,1.1,3.1,2,4.8,2.7c0.4,0.1,0.8,0.1,1.3,0c2.5-0.2,4.6-1.6,5.7-3.8
				c1.4-3.3,0.4-7-2.4-9.2c-4.7-4.2-10.7-6.8-17.1-7.2"/>
			<path id="Shape_3_" class="st1" d="M223.4,305.1c-3.6-3.3-8.4-5.1-13.3-5h-19.7c-3.6,0-6.5,2.9-6.5,6.5c0,3.6,2.9,6.5,6.5,6.5
				h19.7c1.4-0.1,2.8,0.5,3.9,1.5c1,1,1.6,2.4,1.7,3.8v2.9h-16.7c-4.8,0.1-9.4,2-12.7,5.5c-3.3,3.5-5.2,8.1-5.1,12.9
				c0.1,9.9,7.9,17.9,17.7,18.1h12.6c9.5-0.1,17.2-7.8,17.4-17.4v-22.6c0.1-4.7-1.8-9.2-5.1-12.5L223.4,305.1z M215.7,339.7
				c0,1.2-0.5,2.4-1.4,3.2c-0.9,0.8-2,1.3-3.2,1.3h-12.3c-2.8,0-5.1-2.3-5.1-5.2s2.3-5.2,5.1-5.2h16.9V339.7z"/>
			<path id="Shape_4_" class="st1" d="M439.6,305.2c-3.6-3.3-8.4-5.1-13.3-5.1h-19.5c-3.6,0-6.5,2.9-6.5,6.5s2.9,6.5,6.5,6.5h19.7
				c1.4-0.1,2.8,0.5,3.9,1.5c1,1,1.6,2.4,1.6,3.8v2.9h-16.7c-4.9,0-9.5,1.9-12.9,5.4c-3.4,3.5-5.2,8.2-5.1,13.1
				c0.1,9.9,7.9,17.9,17.7,18.1h12.6c9.5-0.1,17.2-7.8,17.4-17.4v-22.6C445,313.1,443.1,308.5,439.6,305.2L439.6,305.2z M432,339.7
				c0,1.2-0.5,2.4-1.4,3.2c-0.9,0.8-2,1.3-3.2,1.3h-12.3c-2.8,0-5.1-2.3-5.1-5.2c0-2.9,2.3-5.2,5.1-5.2H432V339.7z"/>
			<path id="Shape_5_" class="st1" d="M173.6,326.8c0.4-12.1-8-22.8-20.1-25.7c-2.5-0.5-4.9-0.7-7.4-0.7c-4.9,0.3-9.7,1.1-14.4,2.6
				c0,0,0-23.5,0-24.1c0-2.3-1.3-4.4-3.3-5.6s-4.6-1.1-6.6,0c-2.1,1.1-3.3,3.3-3.3,5.6c0,0.5,0,47.8,0,69.3v3.3c0,3.6,3,6.4,6.6,6.4
				c3.7,0,6.6-2.9,6.6-6.4v-23.3c0.4-7.4,6.8-13.1,14.4-12.8c7.7-0.2,14.1,5.7,14.4,13.1v22.9c0,3.6,3,6.4,6.6,6.4
				c3.7,0,6.6-2.9,6.6-6.4C173.7,349.5,173.7,334.3,173.6,326.8"/>
			<path id="Shape_6_" class="st1" d="M389.6,326.8c0.4-12.1-8-22.9-20.1-25.7c-2.5-0.5-4.9-0.7-7.4-0.7c-4.9,0.3-9.7,1.1-14.4,2.6
				c0,0,0-23.5,0-24.1c0-2.3-1.3-4.4-3.3-5.6s-4.6-1.1-6.6,0c-2.1,1.1-3.3,3.3-3.3,5.6c0,0.5,0,47.8,0,69.3v3.3c0,3.6,3,6.4,6.6,6.4
				s6.6-2.9,6.6-6.4v-23.2c0.4-7.4,6.8-13.1,14.4-12.8c7.7-0.2,14.1,5.7,14.4,13.1v22.9c0,3.6,3,6.4,6.6,6.4c3.7,0,6.6-2.9,6.6-6.4
				C389.7,349.6,389.7,334.4,389.6,326.8"/>
			<path id="Shape_7_" class="st1" d="M108.9,302.1c-1.3-1.3-3-2-4.9-2c-3,0-5.6,1.9-6.7,4.6L84.7,343l-12.6-38.4
				c-0.7-2.9-3.5-4.8-6.5-4.6c-3-0.3-5.7,1.7-6.5,4.6L46.7,343L34,304.8c-1.1-2.8-3.7-4.6-6.7-4.6c-1.8,0-3.6,0.7-4.9,2
				c-1.2,1.2-1.9,2.9-2,4.6c0,0.8,0.1,1.5,0.4,2.2l13.4,40.6c1.9,5.2,6.9,8.6,12.4,8.3c5.5,0.2,10.5-3.2,12.2-8.3
				c1.6-4.4,6.8-20.7,6.8-20.7s5.2,16.2,6.8,20.7c1.8,5.2,6.7,8.6,12.2,8.3c5.5,0.2,10.6-3.1,12.4-8.3l13.5-40.6
				c0.2-0.7,0.3-1.5,0.4-2.2C110.8,304.9,110.1,303.3,108.9,302.1"/>
			<path id="Shape_8_" class="st1" d="M267.2,344.9c-6.8-0.9-10.8-3.6-11.9-8.7c-0.6-2.4-0.8-4.8-0.8-7.2v-15.5h13.1
				c3.6,0,6.5-2.9,6.5-6.5s-2.9-6.5-6.5-6.5h-13.1v-21.7c0-3.6-2.9-6.4-6.5-6.4s-6.5,2.9-6.5,6.4V335c-0.4,6,1.8,11.8,6.1,16
				c5.2,4.7,12.1,7.2,19.2,6.9c1.7,0.1,3.3-0.4,4.5-1.5c1.2-1.1,1.9-2.7,1.9-4.4c0.1-1.7-0.4-3.4-1.5-4.7c-1.1-1.3-2.7-2.1-4.4-2.2"
				/>
</svg>
