<svg width="120" height="35" viewBox="0 0 239 68" class=""><g fill="none"><g fill="#E15C26"><ellipse cx="219.2" cy="36.5" rx="6.3" ry="6.3"></ellipse><path d="M187.3 36.4C187.2 38.6 188.4 40.6 190.2 41.8 192.1 43 194.5 43 196.4 42 198.4 40.9 199.6 38.9 199.7 36.8L199.7 30.7 192.4 30.7C189.5 30.9 187.2 33.4 187.3 36.4L187.3 36.4Z"></path><path d="M206.6 0L206.4 0C194.8 0 184.1 6.2 178.3 16.2 172.5 26.2 172.5 38.5 178.3 48.6 179 49.8 179.8 51 180.7 52.3 184.3 58.2 173.3 55.9 178.9 59.8 185.7 64.6 193.8 67.2 202.1 67.1L202.5 67.1C214.5 67.2 225.8 61.7 233 52.1 237 46.3 239.1 39.5 238.9 32.5L238.9 32.2C238.8 14.5 224.4 0.1 206.6 0ZM193.2 48C190.2 48 187.3 46.9 185.1 44.7 183 42.6 181.8 39.7 181.9 36.7 181.9 30.4 186.9 25.3 193.2 25.1L199.5 25.1 199.5 16.3C199.5 14.9 200.7 13.7 202.1 13.7 203.5 13.7 204.7 14.9 204.7 16.3L204.7 20.2C204.7 26.8 204.7 30.2 204.7 36.5 204.6 42.8 199.5 47.9 193.2 48ZM219 48C212.7 48 207.5 42.8 207.5 36.5 207.5 30.1 212.7 24.9 219 24.9 225.4 24.9 230.6 30.1 230.6 36.5 230.6 42.8 225.5 47.9 219.2 48L219 48Z"></path></g><g fill="#347684"><path d="M113.9 25.2C108.3 25 103.3 28.9 102.3 34.3 101.1 39.4 103.7 44.7 108.6 47.1 110 47.7 111.6 48 113.1 48 116 48.1 118.8 47.1 120.9 45.1 122.1 44.1 122.2 42.5 121.4 41.3 120.9 40.7 120.2 40.3 119.4 40.3 118.8 40.3 118.2 40.5 117.7 40.9L117 41.3C116.6 41.6 116.3 41.8 115.9 42 115 42.5 114.1 42.8 113.1 42.8 111.3 42.7 109.6 41.8 108.6 40.3 106.9 38 107 34.9 108.8 32.6 109.9 31.4 111.5 30.6 113.1 30.6 114.3 30.6 115.5 31 116.4 31.6L117 32C117.6 32.4 118.3 32.8 119 33 119.1 33.1 119.3 33.1 119.5 33 120.4 33 121.3 32.4 121.7 31.6 122.3 30.3 121.9 28.8 120.8 27.9 118.9 26.2 116.5 25.2 114 25"></path><path d="M80.8 27C79.4 25.7 77.5 25 75.5 25L67.7 25C66.3 25 65.1 26.2 65.1 27.6 65.1 29 66.3 30.2 67.7 30.2L75.5 30.2C76.1 30.2 76.7 30.4 77.1 30.8 77.5 31.2 77.7 31.7 77.7 32.3L77.7 33.4 71.1 33.4C69.2 33.5 67.3 34.3 66 35.6 64.7 37 64 38.9 64 40.8 64 44.7 67.2 47.9 71.1 48L76.1 48C79.9 48 82.9 44.9 83 41.1L83 32.1C83 30.2 82.3 28.4 81 27.1L80.8 27ZM77.7 40.8C77.7 41.3 77.5 41.7 77.2 42.1 76.8 42.4 76.4 42.6 75.9 42.6L71 42.6C69.8 42.6 68.9 41.7 68.9 40.5 68.9 39.4 69.8 38.5 71 38.5L77.7 38.5 77.7 40.8Z"></path><path d="M166.9 27C165.4 25.7 163.5 25 161.6 25L153.8 25C152.4 25 151.2 26.2 151.2 27.6 151.2 29 152.4 30.2 153.8 30.2L161.6 30.2C162.2 30.2 162.8 30.4 163.2 30.8 163.6 31.2 163.8 31.7 163.8 32.3L163.8 33.4 157.2 33.4C155.2 33.4 153.4 34.2 152 35.6 150.7 37 150 38.8 150 40.8 150 44.7 153.2 47.9 157.1 48L162.1 48C165.9 48 168.9 44.9 169 41.1L169 32.1C169 30.2 168.3 28.3 166.9 27L166.9 27ZM163.9 40.8C163.9 41.3 163.7 41.7 163.3 42.1 163 42.4 162.5 42.6 162 42.6L157.1 42.6C156 42.6 155.1 41.7 155.1 40.5 155.1 39.4 156 38.5 157.1 38.5L163.9 38.5 163.9 40.8Z"></path><path d="M61 35.6C61.1 30.8 57.8 26.5 53 25.4 52 25.2 51 25.1 50 25.1 48.1 25.2 46.1 25.6 44.3 26.1 44.3 26.1 44.3 16.8 44.3 16.6 44.3 15.6 43.8 14.8 43 14.3 42.1 13.9 41.1 13.9 40.3 14.3 39.5 14.8 39 15.6 39 16.6 39 16.8 39 35.6 39 44.1L39 45.4C39 46.9 40.2 48 41.6 48 43.1 48 44.3 46.9 44.3 45.4L44.3 36.2C44.4 33.2 47 31 50 31.1 53.1 31 55.6 33.3 55.7 36.3L55.7 45.4C55.7 46.8 56.9 48 58.4 48 59.8 48 61 46.8 61 45.4 61 44.7 61 38.6 61 35.6"></path><path d="M147 35.6C147.1 30.8 143.8 26.5 139 25.4 138 25.2 137 25.1 136 25.1 134.1 25.2 132.1 25.6 130.3 26.1 130.3 26.1 130.3 16.8 130.3 16.6 130.3 15.6 129.8 14.8 129 14.3 128.1 13.9 127.1 13.9 126.3 14.3 125.5 14.8 125 15.6 125 16.6 125 16.8 125 35.6 125 44.1L125 45.4C125 46.9 126.2 48 127.6 48 129.1 48 130.3 46.9 130.3 45.4L130.3 36.2C130.4 33.3 133 31 136 31.1 139.1 31 141.6 33.4 141.7 36.3L141.7 45.4C141.7 46.9 142.9 48 144.4 48 145.8 48 147 46.9 147 45.4 147 44.7 147 38.6 147 35.6"></path><path d="M35.2 25.8C34.7 25.3 34 25 33.3 25 32.1 25 31 25.8 30.6 26.9L25.6 42.1 20.6 26.8C20.3 25.7 19.2 24.9 18 25 16.8 24.9 15.7 25.7 15.4 26.8L10.5 42.1 5.4 26.9C5 25.8 3.9 25 2.8 25 2 25 1.3 25.3 0.8 25.8 0.3 26.3 0 26.9 0 27.6 0 27.9 0.1 28.2 0.1 28.5L5.5 44.7C6.2 46.7 8.2 48.1 10.4 48 12.6 48.1 14.6 46.7 15.3 44.7 15.9 42.9 18 36.4 18 36.4 18 36.4 20 42.9 20.7 44.7 21.4 46.7 23.4 48.1 25.5 48 27.7 48.1 29.8 46.7 30.5 44.7L35.9 28.5C35.9 28.2 36 27.9 36 27.6 36 26.9 35.7 26.3 35.2 25.8"></path><path d="M98.3 42.8C95.5 42.5 94 41.4 93.5 39.4 93.3 38.4 93.2 37.5 93.2 36.5L93.2 30.3 98.4 30.3C99.8 30.3 101 29.2 101 27.8 101 26.3 99.8 25.2 98.4 25.2L93.2 25.2C93.2 25.2 93.2 16.6 93.2 16.6 93.2 15.1 92 14 90.6 14 89.2 14 88 15.1 88 16.6 88 16.6 88 38.9 88 38.9 87.8 41.3 88.7 43.6 90.5 45.3 92.5 47.1 95.3 48.1 98.1 48 98.7 48 99.4 47.8 99.9 47.4 100.4 46.9 100.6 46.3 100.6 45.6 100.7 45 100.5 44.3 100 43.8 99.6 43.3 98.9 42.9 98.3 42.9"></path></g></g></svg>