<?xml version="1.0" encoding="utf-8"?>
<!-- Generator: Adobe Illustrator 19.2.1, SVG Export Plug-In . SVG Version: 6.00 Build 0)  -->
<svg version="1.1" id="layer" xmlns="http://www.w3.org/2000/svg" xmlns:xlink="http://www.w3.org/1999/xlink" x="0px" y="0px"
	 viewBox="0 0 652 652" style="enable-background:new 0 0 652 652;" xml:space="preserve">
<g>
	<g>
		<path class="st0" d="M155.6,340.2V91.5h333v124c7.1,8.7,13.5,18.4,19.2,29.1V72.2H136.3v290.2
			C142.8,354.8,149.3,347.3,155.6,340.2"/>
		<path class="st1" d="M197.8,446h44.1C380.6,241.4,466.7,241,507.8,318v-17.3C462.7,212.8,364,207.1,197.8,446"/>
		<path class="st0" d="M136.3,391.8V446h38.4c180.9-255.9,285.9-246.6,333-153.3V269C457.8,165,343.8,138,136.3,391.8"/>
		<path class="st2" d="M423.8,446h30.8c21.4-17.1,38.5-15.8,50.9,0h2.3v-18.5C489.8,400,461.4,401.9,423.8,446"/>
		<path class="st3" d="M356.7,446h21.5c60.9-85.8,104.6-92.2,129.6-52.1v-14.6C479.9,333.2,429.1,340.4,356.7,446"/>
		<path class="st4" d="M390,446h24.1c42.4-52.8,74.2-55.9,93.7-25.8v-17.8C484.6,365.6,444.7,371.1,390,446"/>
		<path class="st5" d="M268.3,446h23.4c108.9-163.3,180.2-168.5,216.1-104.6v-11.5C469.4,259.8,391.1,263,268.3,446"/>
		<path class="st6" d="M323.4,446h11.8c84.2-125,141.9-132.3,172.6-80.2v-7.1C475.6,303.4,414.2,310.4,323.4,446"/>
		<polygon class="st7" points="193,508.7 154.3,555.3 193.2,555.3 193.2,570.9 131.4,570.9 131.4,554.1 169,507.5 132.5,507.5 
			132.5,491.9 193,491.9 		"/>
		<path class="st7" d="M238.7,491.9h25.8l30.4,79h-23.1l-5.9-16.9h-29.6l-6.2,16.9h-21.4L238.7,491.9z M251.6,508.2h-0.2l-10.2,30.9
			H261L251.6,508.2z"/>
		<polygon class="st7" points="312.4,491.9 345.6,491.9 362.3,544.4 362.5,544.4 380.1,491.9 412,491.9 412,570.9 391.4,570.9 
			391.7,510.2 391.5,510.2 371.4,570.9 352,570.9 332.8,510.2 332.6,510.2 333,570.9 312.4,570.9 		"/>
		<path class="st7" d="M509.2,568.6c-13.4,3.4-23.3,3.6-30.5,3.6c-21,0-45.4-10.6-45.4-40.5c0-29.8,20.9-41.2,49.9-41.2
			c5.2,0,16.2,0.6,23.9,3.5l-1.7,17.2c-6.6-3.8-14.3-5.1-19.2-5.1c-17.1,0-31.1,7.1-31.1,25.6c0,15.5,11,24.9,26.4,24.9
			c2.8,0,5.5-0.5,7.5-1.4v-15.6h-12.3v-14.9h32.7V568.6z"/>
	</g>
</g>
</svg>
